HIERARCHY
ROOT Hips
{
	OFFSET 0.00000 0.00000 0.00000
	CHANNELS 6 Xposition Yposition Zposition Zrotation Yrotation Xrotation 
	JOINT LHipJoint
	{
		OFFSET 0 0 0
		CHANNELS 3 Zrotation Yrotation Xrotation
		JOINT LeftHip
		{
			OFFSET 1.58895 -1.83665 0.71753
			CHANNELS 3 Zrotation Yrotation Xrotation
			JOINT LeftKnee
			{
				OFFSET 2.50528 -6.88321 0.00000
				CHANNELS 3 Zrotation Yrotation Xrotation
				JOINT LeftAnkle
				{
					OFFSET 2.63244 -7.23257 0.00000
					CHANNELS 3 Zrotation Yrotation Xrotation
					JOINT LeftToe
					{
						OFFSET 0.23691 -0.65090 1.72750
						CHANNELS 3 Zrotation Yrotation Xrotation
						End Site
						{
							OFFSET 0.00000 -0.00000 0.92561
						}
					}
				}
			}
		}
	}
	JOINT RHipJoint
	{
		OFFSET 0 0 0
		CHANNELS 3 Zrotation Yrotation Xrotation
		JOINT RightHip
		{
			OFFSET -1.51435 -1.83665 0.71753
			CHANNELS 3 Zrotation Yrotation Xrotation
			JOINT RightKnee
			{
				OFFSET -2.54551 -6.99375 0.00000
				CHANNELS 3 Zrotation Yrotation Xrotation
				JOINT RightAnkle
				{
					OFFSET -2.66027 -7.30903 0.00000
					CHANNELS 3 Zrotation Yrotation Xrotation
					JOINT RightToe
					{
						OFFSET -0.22981 -0.63138 2.03959
						CHANNELS 3 Zrotation Yrotation Xrotation
						End Site
						{
							OFFSET -0.00000 -0.00000 1.07060
						}
					}
				}
			}
		}
	}
	JOINT lowerback
	{
		OFFSET 0 0 0
		CHANNELS 3 Zrotation Yrotation Xrotation
		JOINT Chest
		{
			OFFSET -0.02651 1.86275 -0.11152
			CHANNELS 3 Zrotation Yrotation Xrotation
			JOINT Chest2
			{
				OFFSET 0.01019 1.86224 0.04087
				CHANNELS 3 Zrotation Yrotation Xrotation
				JOINT lowerneck
				{
					OFFSET 0 0 0
					CHANNELS 3 Zrotation Yrotation Xrotation
					JOINT Neck
					{
						OFFSET -0.01926 1.80512 0.08867
						CHANNELS 3 Zrotation Yrotation Xrotation
						JOINT Head
						{
							OFFSET 0.05516 1.76451 -0.38475
							CHANNELS 3 Zrotation Yrotation Xrotation
							End Site
							{
								OFFSET 0.01592 1.82587 -0.14001
							}
						}
					}
				}
				JOINT LeftCollar
				{
					OFFSET 0 0 0
					CHANNELS 3 Zrotation Yrotation Xrotation
					JOINT LeftShoulder
					{
						OFFSET 3.47116 1.51376 0.14491
CHANNELS 3 Zrotation Xrotation Yrotation
						JOINT LeftElbow
						{
OFFSET 0 -4.780950 0.000000
CHANNELS 3 Zrotation Xrotation Yrotation
							JOINT LeftWrist
							{
OFFSET 0 -3.586150 -0.000000
CHANNELS 3 Zrotation Xrotation Yrotation
								JOINT lhand
								{
									OFFSET 0 0 0
CHANNELS 3 Zrotation Xrotation Yrotation
									JOINT LFingers
									{
OFFSET 0 -0.659810 0.000000
CHANNELS 3 Zrotation Xrotation Yrotation
										End Site
										{
OFFSET 0 -0.531960 0.000000
										}
									}
								}
								JOINT LThumb
								{
OFFSET 0 0.000000 0.000000
CHANNELS 3 Zrotation Xrotation Yrotation
									End Site
									{
OFFSET 0 -0.540080 0.540080
									}
								}
							}
						}
					}
				}
				JOINT RightCollar
				{
					OFFSET 0 0 0
					CHANNELS 3 Zrotation Yrotation Xrotation
					JOINT RightShoulder
					{
						OFFSET -3.31725 1.61216 0.35156
CHANNELS 3 Zrotation Xrotation Yrotation
						JOINT RightElbow
						{
OFFSET 0 -4.489130 0.000000
CHANNELS 3 Zrotation Xrotation Yrotation
							JOINT RightWrist
							{
OFFSET 0 -3.705100 0.000000
CHANNELS 3 Zrotation Xrotation Yrotation
								JOINT rhand
								{
									OFFSET 0 0 0
CHANNELS 3 Zrotation Xrotation Yrotation
									JOINT RFingers
									{
OFFSET 0 -0.449140 0.000000
CHANNELS 3 Zrotation Xrotation Yrotation
										End Site
										{
OFFSET 0 -0.362110 0.000000
										}
									}
								}
								JOINT RThumb
								{
OFFSET 0 0.000000 0.000000
CHANNELS 3 Zrotation Xrotation Yrotation
									End Site
									{
OFFSET 0 -0.367630 0.367630
									}
								}
							}
						}
					}
				}
			}
		}
	}
}
MOTION
Frames: 10
Frame Time: 0.008333333333333333
-0.864400 18.671400 6.007900 -2.674200 -2.662800 1.683100 0.000000 0.000000 0.000000 -12.221900 -8.177700 -1.655000 1.381100 7.436300 21.014500 1.765400 6.177200 -27.958100 8.012000 -16.128100 -52.605800 0.000000 0.000000 0.000000 16.717900 -2.418000 7.052200 0.000000 -0.000000 0.000000 -0.942500 -3.213200 -19.767200 -0.008300 0.587300 -1.613800 0.950600 1.195300 0.199700 0.884900 1.620500 -1.728600 0.344400 0.802300 -1.881900 -2.272000 -1.535500 -10.906700 2.319400 -2.315600 26.591500 0.933600 -1.026900 10.331000 -0.000000 0.000000 0.000000 -3.017200 11.261100 -25.118400 20.581700 -31.336800 5.830800 2.393200 16.820900 26.913200 0.000000 0.000000 0.000000 -7.125000 0.000000 0.000000 -16.448000 3.964000 -15.955900 -0.000000 0.000000 0.000000 1.067500 18.572900 20.236800 -24.054200 -35.221500 -7.737800 -4.775100 28.764400 31.087700 0.000000 0.000000 0.000000 7.125000 0.000000 -0.000000 30.014100 58.535100 -10.538200
-0.889123 18.687842 5.955927 -2.609128 -1.614175 2.306643 0.000000 0.000000 0.000000 -11.737241 -7.540680 -3.177057 1.380368 7.434376 21.008714 1.606355 5.114507 -26.241952 8.150158 -16.228322 -53.101370 0.000000 0.000000 0.000000 16.829198 -3.223572 6.085015 0.000000 0.000000 0.000000 -0.945276 -3.189653 -19.780963 -0.004727 0.432577 -1.188698 0.538567 0.854464 0.419388 0.934270 1.167773 -2.081603 0.628506 0.583470 -2.376047 -2.320366 -1.535738 -10.954953 2.395976 -2.325913 26.624183 0.967796 -1.027054 10.354253 0.000000 0.000000 0.000000 -2.969764 11.309712 -25.268360 20.640382 -31.406141 5.861402 2.383328 16.589426 26.844873 0.000000 0.000000 0.000000 -7.125000 0.000000 0.000000 -16.454216 4.030205 -15.941437 0.000000 0.000000 0.000000 1.042934 18.529682 20.254964 -24.025441 -35.191138 -7.721203 -4.713917 28.707606 30.993364 0.000000 0.000000 0.000000 7.125000 0.000000 0.000000 29.992538 58.440683 -10.460328
-0.907832 18.700673 5.916635 -2.549042 -0.837000 2.776449 0.000000 0.000000 0.000000 -11.414469 -7.174670 -4.276677 1.379627 7.432468 21.003189 1.493486 4.340036 -25.001757 8.216818 -16.276399 -53.339821 0.000000 0.000000 0.000000 16.906647 -3.816673 5.357127 0.000000 0.000000 0.000000 -0.944862 -3.178696 -19.771249 -0.003265 0.366052 -1.005729 0.204473 0.599684 0.565078 0.985766 0.827975 -2.335556 0.872625 0.420724 -2.723915 -2.376923 -1.538891 -10.962109 2.443301 -2.330148 26.611940 0.993663 -1.029108 10.352687 0.000000 0.000000 0.000000 -2.966857 11.322088 -25.303530 20.649475 -31.416921 5.866185 2.362347 16.553381 26.916741 0.000000 0.000000 0.000000 -7.125000 0.000000 0.000000 -16.465927 3.962905 -15.975216 0.000000 0.000000 0.000000 1.016755 18.515498 20.237260 -24.030474 -35.196380 -7.724059 -4.604237 28.619599 30.912848 0.000000 0.000000 0.000000 7.125000 0.000000 0.000000 30.031074 58.347506 -10.406755
-0.908530 18.700989 5.915111 -2.552017 -0.839433 2.784240 0.000000 0.000000 0.000000 -11.405752 -7.187733 -4.285201 1.380049 7.433546 21.006437 1.496530 4.368063 -25.038930 8.211440 -16.272560 -53.320810 0.000000 0.000000 0.000000 16.913771 -3.811351 5.348427 0.000000 0.000000 0.000000 -0.943376 -3.164455 -19.749303 -0.001303 0.230266 -0.632681 0.197207 0.603605 0.574636 0.988404 0.833188 -2.333288 0.879246 0.423551 -2.727220 -2.342784 -1.537787 -10.926401 2.404061 -2.325217 26.573642 0.974490 -1.028325 10.330496 0.000000 0.000000 0.000000 -2.988700 11.324957 -25.224341 20.634929 -31.399766 5.858563 2.279576 16.660409 26.960965 0.000000 0.000000 0.000000 -7.125000 0.000000 0.000000 -16.513618 3.926883 -16.037244 0.000000 0.000000 0.000000 0.993834 18.505277 20.233560 -24.016039 -35.181205 -7.715821 -4.494523 28.520749 30.849056 0.000000 0.000000 0.000000 7.125000 0.000000 0.000000 30.084153 58.268793 -10.369272
-0.908673 18.701127 5.914900 -2.583054 -0.841499 2.790713 0.000000 0.000000 0.000000 -11.363679 -7.122603 -4.319821 1.380692 7.435257 21.011497 1.499737 4.323561 -25.039683 8.237773 -16.291347 -53.414608 0.000000 0.000000 0.000000 16.949346 -3.805820 5.342223 0.000000 0.000000 0.000000 -0.941827 -3.161019 -19.732533 -0.000454 0.134146 -0.368689 0.248394 0.615206 0.580884 0.977685 0.849543 -2.337679 0.838944 0.430469 -2.734501 -2.285354 -1.544344 -10.893652 2.365625 -2.337024 26.560348 0.949712 -1.032745 10.318337 0.000000 0.000000 0.000000 -2.948776 11.359301 -25.268189 20.660160 -31.429473 5.871713 2.270829 16.658653 26.908159 0.000000 0.000000 0.000000 -7.125000 0.000000 0.000000 -16.519088 3.978190 -16.026711 0.000000 0.000000 0.000000 0.990580 18.500132 20.239169 -23.988064 -35.151599 -7.699671 -4.543351 28.479318 30.762014 0.000000 0.000000 0.000000 7.125000 0.000000 0.000000 29.961499 58.204658 -10.274652
-0.908419 18.700468 5.915316 -2.588358 -0.853945 2.797291 0.000000 0.000000 0.000000 -11.366231 -7.155654 -4.312132 1.381484 7.437419 21.017873 1.503099 4.295392 -25.050202 8.237868 -16.291482 -53.415043 0.000000 0.000000 0.000000 16.954505 -3.790458 5.336109 0.000000 0.000000 0.000000 -0.944054 -3.142947 -19.744816 -0.000200 0.082206 -0.225798 0.264139 0.620066 0.552131 0.968568 0.855790 -2.325171 0.821070 0.433111 -2.705080 -2.274494 -1.547952 -10.864582 2.367577 -2.345494 26.554045 0.947695 -1.035611 10.310441 0.000000 0.000000 0.000000 -2.942073 11.352922 -25.233607 20.640436 -31.406198 5.861453 2.409093 16.652680 26.949178 0.000000 0.000000 0.000000 -7.125000 0.000000 0.000000 -16.438522 3.928200 -15.957201 0.000000 0.000000 0.000000 0.995140 18.500698 20.245343 -23.978941 -35.141998 -7.694455 -4.589960 28.518257 30.753770 0.000000 0.000000 0.000000 7.125000 0.000000 0.000000 29.908602 58.207773 -10.256551
-0.907941 18.700359 5.915162 -2.587090 -0.864040 2.798206 0.000000 0.000000 0.000000 -11.367786 -7.135584 -4.322829 1.380865 7.435752 21.012896 1.492527 4.371985 -25.010997 8.259337 -16.306693 -53.491444 0.000000 0.000000 0.000000 16.951307 -3.779800 5.336026 0.000000 0.000000 0.000000 -0.942943 -3.140600 -19.732415 -0.000200 0.092254 -0.253570 0.264301 0.620509 0.523294 0.967925 0.855879 -2.305706 0.820647 0.433121 -2.668759 -2.226223 -1.545551 -10.811361 2.299962 -2.334669 26.523055 0.916890 -1.034075 10.286918 0.000000 0.000000 0.000000 -3.006887 11.311988 -25.019724 20.618691 -31.380467 5.850067 2.358120 16.852111 27.052482 0.000000 0.000000 0.000000 -7.125000 0.000000 0.000000 -16.467312 3.833188 -16.017994 0.000000 0.000000 0.000000 1.003382 18.472764 20.229823 -23.957554 -35.119413 -7.682157 -4.581064 28.565001 30.838722 0.000000 0.000000 0.000000 7.125000 0.000000 0.000000 29.990106 58.278786 -10.340258
-0.908008 18.700505 5.914687 -2.572774 -0.887102 2.790884 0.000000 0.000000 0.000000 -11.388478 -7.136640 -4.307889 1.380287 7.434168 21.008012 1.491523 4.440489 -25.039994 8.264067 -16.310051 -53.508340 0.000000 0.000000 0.000000 16.933886 -3.758968 5.345500 0.000000 0.000000 0.000000 -0.943660 -3.139373 -19.738860 -0.000221 0.102414 -0.281213 0.251523 0.629021 0.536705 0.956931 0.866713 -2.296977 0.816226 0.438611 -2.667460 -2.145277 -1.545789 -10.834234 2.205026 -2.327663 26.566329 0.870218 -1.033392 10.304811 0.000000 0.000000 0.000000 -3.156343 11.243806 -24.455038 20.607306 -31.367081 5.844211 2.113832 17.445487 27.208644 0.000000 0.000000 0.000000 -7.125000 0.000000 0.000000 -16.607724 3.702275 -16.209056 0.000000 0.000000 0.000000 0.985715 18.487287 20.277398 -23.979956 -35.143059 -7.695032 -4.575322 28.507459 30.859598 0.000000 0.000000 0.000000 7.125000 0.000000 0.000000 30.013712 58.295438 -10.361689
-0.908484 18.700838 5.914062 -2.552728 -0.895391 2.781944 0.000000 0.000000 0.000000 -11.414256 -7.163324 -4.276629 1.379295 7.431669 21.000714 1.496918 4.425408 -25.072141 8.235215 -16.289568 -53.405386 0.000000 0.000000 0.000000 16.912235 -3.753576 5.353351 0.000000 0.000000 0.000000 -0.942200 -3.171705 -19.741716 -0.001413 0.242298 -0.665754 0.242116 0.627918 0.554779 0.938725 0.864675 -2.289654 0.802646 0.437577 -2.669994 -2.131526 -1.541911 -10.804300 2.190803 -2.321342 26.548321 0.863738 -1.031080 10.291886 0.000000 0.000000 0.000000 -3.195521 11.230667 -24.258663 20.622972 -31.385656 5.852359 2.017702 17.636612 27.202672 0.000000 0.000000 0.000000 -7.125000 0.000000 0.000000 -16.663411 3.715448 -16.264304 0.000000 0.000000 0.000000 1.067711 18.485560 20.201050 -23.981220 -35.144374 -7.695741 -4.561894 28.574078 30.862393 0.000000 0.000000 0.000000 7.125000 0.000000 0.000000 30.029343 58.294964 -10.367334
-0.908611 18.700733 5.913900 -2.543142 -0.885514 2.786138 0.000000 0.000000 0.000000 -11.429675 -7.194422 -4.268428 1.377809 7.427871 20.989392 1.497554 4.463723 -25.097317 8.241148 -16.293793 -53.426655 0.000000 0.000000 0.000000 16.904809 -3.762460 5.346690 0.000000 0.000000 0.000000 -0.943002 -3.173233 -19.750812 -0.001543 0.250085 -0.687078 0.248448 0.619994 0.538442 0.925612 0.853677 -2.281486 0.786166 0.431799 -2.651836 -2.087568 -1.530757 -10.724075 2.134115 -2.299097 26.453407 0.838938 -1.023886 10.239607 0.000000 0.000000 0.000000 -3.134564 11.237071 -24.438451 20.614818 -31.375935 5.848086 2.027695 17.454652 27.092937 0.000000 0.000000 0.000000 -7.125000 0.000000 0.000000 -16.658450 3.819717 -16.225672 0.000000 0.000000 0.000000 1.067563 18.475542 20.231208 -23.976467 -35.139388 -7.692971 -4.540479 28.536028 30.836297 0.000000 0.000000 0.000000 7.125000 0.000000 0.000000 30.027966 58.267975 -10.346849
